# Alias OBJ Model File
# Exported from SketchUp, (c) 2000-2012 Trimble Navigation Limited
# File units = centimeters

mtllib 3003_SimpleCube.mtl

g Mesh1 Model

usemtl FrontColor
v 127.912 151.611 125.072
vt 50.359 -49.2409
vn 0 1 -0
v 127.912 151.611 -126.875
vt 50.359 49.9507
v -124.035 151.611 -126.875
vt -48.8326 49.9507
v -124.035 151.611 125.072
vt -48.8326 -49.2409
f 1/1/1 2/2/1 3/3/1 4/4/1 

v 127.912 0.316516 125.072
vt -49.2409 0.124613
vn 1 0 -0
v 127.912 0.316516 -126.875
vt 49.9507 0.124613
vt 49.9507 59.6894
vt -49.2409 59.6894
f 5/5/2 6/6/2 2/7/2 1/8/2 

v -124.035 0.316516 125.072
vt 48.8326 -49.2409
vn 0 -1 -0
v -124.035 0.316516 -126.875
vt 48.8326 49.9507
vt -50.359 49.9507
vt -50.359 -49.2409
f 7/9/3 8/10/3 6/11/3 5/12/3 

vt 49.2409 59.6894
vn -1 0 -0
vt -49.9507 59.6894
vt -49.9507 0.124613
vt 49.2409 0.124613
f 4/13/4 3/14/4 8/15/4 7/16/4 

vt 48.8326 59.6894
vn 0 0 -1
vt -50.359 59.6894
vt -50.359 0.124613
vt 48.8326 0.124613
f 3/17/5 2/18/5 6/19/5 8/20/5 

vt -48.8326 59.6894
vn 0 0 1
vt -48.8326 0.124613
vt 50.359 0.124613
vt 50.359 59.6894
f 4/21/6 7/22/6 5/23/6 1/24/6 

