# Default terrain block model (2x2 brick)
# Game units, pivot at the center of the footprint on the bottom face, +Y up.
v -0.154129 0.557607 0.310909
v -0.200038 0.557607 0.320062
v -0.200038 0.570108 0.307309
v -0.154129 0.557607 0.310909
v -0.200038 0.570108 0.307309
v -0.15898 0.570108 0.299157
v -0.109771 0.479091 0.290305
v -0.154129 0.486593 0.310909
v -0.115172 0.486593 0.284904
v -0.082066 0.479091 0.248897
v -0.109771 0.479091 0.290305
v -0.115172 0.486593 0.284904
v -0.082066 0.479091 0.248897
v -0.115172 0.486593 0.284904
v -0.089167 0.486593 0.245947
v -0.072364 0.479091 0.200038
v -0.082066 0.479091 0.248897
v -0.089167 0.486593 0.245947
v -0.072364 0.479091 0.200038
v -0.089167 0.486593 0.245947
v -0.080015 0.486593 0.200038
v -0.072364 0.479091 0.200038
v -0.080015 0.486593 0.200038
v -0.082066 0.479091 0.151179
v -0.151179 0.479091 -0.317673
v -0.154129 0.486593 -0.310573
v -0.200038 0.479091 -0.327378
v -0.310909 0.486593 -0.245611
v -0.327713 0.479091 -0.199702
v -0.31801 0.479091 -0.248561
v -0.284904 0.486593 -0.284568
v -0.310909 0.486593 -0.245611
v -0.31801 0.479091 -0.248561
v -0.284904 0.486593 -0.284568
v -0.31801 0.479091 -0.248561
v -0.290305 0.479091 -0.289969
v -0.245947 0.486593 -0.310573
v -0.284904 0.486593 -0.284568
v -0.290305 0.479091 -0.289969
v -0.245947 0.486593 -0.310573
v -0.290305 0.479091 -0.289969
v -0.248897 0.479091 -0.317673
v -0.200038 0.486593 -0.319724
v -0.245947 0.486593 -0.310573
v -0.248897 0.479091 -0.317673
v -0.200038 0.479091 -0.327378
v -0.200038 0.486593 -0.319724
v -0.248897 0.479091 -0.317673
v -0.154129 0.486593 -0.310573
v -0.200038 0.486593 -0.319724
v -0.200038 0.479091 -0.327378
v -0.154129 0.557607 -0.310573
v -0.200038 0.570108 -0.306972
v -0.200038 0.557607 -0.319724
v -0.200038 0.557607 -0.319724
v -0.200038 0.570108 -0.306972
v -0.241096 0.570108 -0.298821
v -0.200038 0.557607 -0.319724
v -0.241096 0.570108 -0.298821
v -0.245947 0.557607 -0.310573
v -0.245947 0.486593 -0.088831
v -0.248897 0.479091 -0.081729
v -0.284904 0.486593 -0.114836
v -0.248897 0.479091 -0.081729
v -0.290305 0.479091 -0.109435
v -0.284904 0.486593 -0.114836
v -0.284904 0.486593 -0.114836
v -0.290305 0.479091 -0.109435
v -0.310909 0.486593 -0.153793
v -0.290305 0.479091 -0.109435
v -0.31801 0.479091 -0.150843
v -0.310909 0.486593 -0.153793
v -0.310909 0.486593 -0.153793
v -0.31801 0.479091 -0.150843
v -0.327713 0.479091 -0.199702
v -0.310909 0.486593 -0.153793
v -0.327713 0.479091 -0.199702
v -0.320061 0.486593 -0.199702
v -0.310909 0.486593 -0.245611
v -0.320061 0.486593 -0.199702
v -0.327713 0.479091 -0.199702
v -0.200038 0.479091 -0.072027
v -0.248897 0.479091 -0.081729
v -0.245947 0.486593 -0.088831
v -0.200038 0.486593 -0.079679
v -0.200038 0.479091 -0.072027
v -0.245947 0.486593 -0.088831
v -0.200038 0.557607 -0.079679
v -0.245947 0.557607 -0.088831
v -0.241096 0.570108 -0.100583
v -0.200038 0.570108 -0.092431
v -0.200038 0.557607 -0.079679
v -0.241096 0.570108 -0.100583
v -0.299157 0.570108 -0.24076
v -0.307308 0.570108 -0.199702
v -0.310909 0.557607 -0.245611
v -0.307308 0.570108 -0.199702
v -0.320061 0.557607 -0.199702
v -0.310909 0.557607 -0.245611
v -0.299157 0.570108 -0.158644
v -0.320061 0.557607 -0.199702
v -0.307308 0.570108 -0.199702
v -0.299157 0.570108 -0.158644
v -0.310909 0.557607 -0.153793
v -0.320061 0.557607 -0.199702
v -0.154129 0.557607 -0.088831
v -0.200038 0.570108 -0.092431
v -0.15898 0.570108 -0.100583
v -0.109771 0.479091 -0.109435
v -0.154129 0.486593 -0.088831
v -0.115172 0.486593 -0.114836
v -0.082066 0.479091 -0.150843
v -0.109771 0.479091 -0.109435
v -0.115172 0.486593 -0.114836
v -0.082066 0.479091 -0.150843
v -0.115172 0.486593 -0.114836
v -0.089167 0.486593 -0.153793
v -0.072364 0.479091 -0.199702
v -0.082066 0.479091 -0.150843
v -0.089167 0.486593 -0.153793
v -0.072364 0.479091 -0.199702
v -0.089167 0.486593 -0.153793
v -0.080015 0.486593 -0.199702
v -0.072364 0.479091 -0.199702
v -0.080015 0.486593 -0.199702
v -0.082066 0.479091 -0.248561
v -0.109771 0.479091 -0.289969
v -0.115172 0.486593 -0.284568
v -0.151179 0.479091 -0.317673
v -0.109771 0.479091 -0.109435
v -0.151179 0.479091 -0.081729
v -0.154129 0.486593 -0.088831
v -0.151179 0.479091 -0.081729
v -0.200038 0.486593 -0.079679
v -0.154129 0.486593 -0.088831
v -0.154129 0.557607 -0.088831
v -0.200038 0.557607 -0.079679
v -0.200038 0.570108 -0.092431
v -0.151179 0.479091 -0.081729
v -0.200038 0.479091 -0.072027
v -0.200038 0.486593 -0.079679
v 0.199934 0.479091 -0.327618
v 0.199934 0.486593 -0.319967
v 0.151075 0.479091 -0.317917
v 0.154025 0.486593 -0.310815
v 0.109667 0.479091 -0.290211
v 0.151075 0.479091 -0.317917
v 0.199934 0.486593 -0.319967
v 0.154025 0.486593 -0.310815
v 0.151075 0.479091 -0.317917
v 0.199934 0.557607 -0.319967
v 0.158876 0.570108 -0.299063
v 0.154025 0.557607 -0.310815
v 0.154025 0.486593 -0.310815
v 0.115068 0.486593 -0.28481
v 0.109667 0.479091 -0.290211
v 0.115068 0.486593 -0.28481
v 0.081961 0.479091 -0.248803
v 0.109667 0.479091 -0.290211
v 0.115068 0.486593 -0.28481
v 0.089063 0.486593 -0.245852
v 0.081961 0.479091 -0.248803
v 0.089063 0.486593 -0.245852
v 0.072259 0.479091 -0.199944
v 0.081961 0.479091 -0.248803
v 0.089063 0.486593 -0.245852
v 0.079911 0.486593 -0.199944
v 0.072259 0.479091 -0.199944
v 0.089063 0.486593 -0.154035
v 0.072259 0.479091 -0.199944
v 0.079911 0.486593 -0.199944
v 0.154025 0.486593 -0.089073
v 0.151075 0.479091 -0.081971
v 0.115068 0.486593 -0.115078
v 0.151075 0.479091 -0.081971
v 0.109667 0.479091 -0.109677
v 0.115068 0.486593 -0.115078
v 0.115068 0.486593 -0.115078
v 0.109667 0.479091 -0.109677
v 0.089063 0.486593 -0.154035
v 0.109667 0.479091 -0.109677
v 0.081961 0.479091 -0.151084
v 0.089063 0.486593 -0.154035
v 0.089063 0.486593 -0.154035
v 0.081961 0.479091 -0.151084
v 0.072259 0.479091 -0.199944
v 0.089063 0.486593 0.245705
v 0.081961 0.479091 0.248656
v 0.072259 0.479091 0.199796
v 0.089063 0.486593 0.245705
v 0.072259 0.479091 0.199796
v 0.079911 0.486593 0.199796
v 0.154025 0.486593 0.310668
v 0.151075 0.479091 0.317769
v 0.115068 0.486593 0.284662
v 0.151075 0.479091 0.317769
v 0.109667 0.479091 0.290063
v 0.115068 0.486593 0.284662
v 0.115068 0.486593 0.284662
v 0.109667 0.479091 0.290063
v 0.089063 0.486593 0.245705
v 0.109667 0.479091 0.290063
v 0.081961 0.479091 0.248656
v 0.089063 0.486593 0.245705
v 0.089063 0.486593 0.153888
v 0.072259 0.479091 0.199796
v 0.081961 0.479091 0.150937
v 0.115068 0.486593 0.11493
v 0.089063 0.486593 0.153888
v 0.081961 0.479091 0.150937
v 0.115068 0.486593 0.11493
v 0.081961 0.479091 0.150937
v 0.109667 0.479091 0.109529
v 0.154025 0.486593 0.088925
v 0.115068 0.486593 0.11493
v 0.109667 0.479091 0.109529
v 0.154025 0.486593 0.088925
v 0.109667 0.479091 0.109529
v 0.151075 0.479091 0.081824
v 0.199934 0.486593 0.079773
v 0.154025 0.486593 0.088925
v 0.151075 0.479091 0.081824
v 0.199934 0.479091 0.072122
v 0.199934 0.486593 0.079773
v 0.151075 0.479091 0.081824
v 0.199934 0.479091 0.327469
v 0.151075 0.479091 0.317769
v 0.154025 0.486593 0.310668
v 0.199934 0.486593 0.319819
v 0.199934 0.479091 0.327469
v 0.154025 0.486593 0.310668
v 0.199934 0.557607 0.319819
v 0.154025 0.557607 0.310668
v 0.158876 0.570108 0.298915
v 0.199934 0.570108 0.307067
v 0.199934 0.557607 0.319819
v 0.158876 0.570108 0.298915
v 0.100815 0.570108 0.158739
v 0.092663 0.570108 0.199796
v 0.089063 0.557607 0.153888
v 0.199934 0.557607 0.079773
v 0.158876 0.570108 0.100677
v 0.154025 0.557607 0.088925
v 0.092663 0.570108 0.199796
v 0.079911 0.557607 0.199796
v 0.089063 0.557607 0.153888
v 0.100815 0.570108 0.240854
v 0.079911 0.557607 0.199796
v 0.092663 0.570108 0.199796
v 0.100815 0.570108 0.240854
v 0.089063 0.557607 0.245705
v 0.079911 0.557607 0.199796
v 0.089063 0.486593 0.153888
v 0.079911 0.486593 0.199796
v 0.072259 0.479091 0.199796
v 0.245842 0.557607 0.088925
v 0.199934 0.570108 0.092526
v 0.199934 0.557607 0.079773
v 0.199934 0.557607 0.079773
v 0.199934 0.570108 0.092526
v 0.158876 0.570108 0.100677
v 0.245842 0.557607 0.310668
v 0.199934 0.570108 0.307067
v 0.240991 0.570108 0.298915
v 0.290201 0.479091 0.290063
v 0.245842 0.486593 0.310668
v 0.2848 0.486593 0.284662
v 0.317907 0.479091 0.248656
v 0.290201 0.479091 0.290063
v 0.2848 0.486593 0.284662
v 0.317907 0.479091 0.248656
v 0.2848 0.486593 0.284662
v 0.310803 0.486593 0.245705
v 0.327608 0.479091 0.199796
v 0.317907 0.479091 0.248656
v 0.310803 0.486593 0.245705
v 0.327608 0.479091 0.199796
v 0.310803 0.486593 0.245705
v 0.319958 0.486593 0.199796
v 0.327608 0.479091 0.199796
v 0.319958 0.486593 0.199796
v 0.317907 0.479091 0.150937
v 0.199934 0.479091 -0.07227
v 0.151075 0.479091 -0.081971
v 0.154025 0.486593 -0.089073
v 0.199934 0.486593 -0.079921
v 0.199934 0.479091 -0.07227
v 0.154025 0.486593 -0.089073
v 0.199934 0.557607 -0.079921
v 0.154025 0.557607 -0.089073
v 0.158876 0.570108 -0.100825
v 0.199934 0.570108 -0.092673
v 0.199934 0.557607 -0.079921
v 0.158876 0.570108 -0.100825
v 0.100815 0.570108 -0.241002
v 0.092663 0.570108 -0.199944
v 0.089063 0.557607 -0.245852
v 0.092663 0.570108 -0.199944
v 0.079911 0.557607 -0.199944
v 0.089063 0.557607 -0.245852
v 0.100815 0.570108 -0.158886
v 0.079911 0.557607 -0.199944
v 0.092663 0.570108 -0.199944
v 0.100815 0.570108 -0.158886
v 0.089063 0.557607 -0.154035
v 0.079911 0.557607 -0.199944
v 0.245842 0.557607 -0.089073
v 0.199934 0.570108 -0.092673
v 0.240991 0.570108 -0.100825
v 0.290201 0.479091 -0.109677
v 0.245842 0.486593 -0.089073
v 0.2848 0.486593 -0.115078
v 0.317907 0.479091 -0.151084
v 0.290201 0.479091 -0.109677
v 0.2848 0.486593 -0.115078
v 0.317907 0.479091 -0.151084
v 0.2848 0.486593 -0.115078
v 0.310803 0.486593 -0.154035
v 0.327608 0.479091 -0.199944
v 0.317907 0.479091 -0.151084
v 0.310803 0.486593 -0.154035
v 0.327608 0.479091 -0.199944
v 0.310803 0.486593 -0.154035
v 0.319958 0.486593 -0.199944
v 0.327608 0.479091 -0.199944
v 0.319958 0.486593 -0.199944
v 0.317907 0.479091 -0.248803
v 0.248793 0.479091 -0.081971
v 0.199934 0.479091 -0.07227
v 0.199934 0.486593 -0.079921
v 0.248793 0.479091 -0.081971
v 0.199934 0.486593 -0.079921
v 0.245842 0.486593 -0.089073
v 0.290201 0.479091 -0.109677
v 0.248793 0.479091 -0.081971
v 0.245842 0.486593 -0.089073
v 0.245842 0.557607 -0.089073
v 0.199934 0.557607 -0.079921
v 0.199934 0.570108 -0.092673
v 0.248793 0.479091 -0.317917
v 0.245842 0.486593 -0.310815
v 0.199934 0.479091 -0.327618
v 0.245842 0.486593 -0.310815
v 0.199934 0.486593 -0.319967
v 0.199934 0.479091 -0.327618
v 0.245842 0.557607 -0.310815
v 0.199934 0.570108 -0.307214
v 0.199934 0.557607 -0.319967
v 0.199934 0.557607 -0.319967
v 0.199934 0.570108 -0.307214
v 0.158876 0.570108 -0.299063
v 0.245842 0.557607 -0.310815
v 0.240991 0.570108 -0.299063
v 0.199934 0.570108 -0.307214
v 0.2848 0.486593 -0.28481
v 0.245842 0.486593 -0.310815
v 0.248793 0.479091 -0.317917
v 0.290201 0.479091 -0.290211
v 0.2848 0.486593 -0.28481
v 0.248793 0.479091 -0.317917
v 0.317907 0.479091 -0.248803
v 0.2848 0.486593 -0.28481
v 0.290201 0.479091 -0.290211
v 0.317907 0.479091 -0.248803
v 0.310803 0.486593 -0.245852
v 0.2848 0.486593 -0.28481
v 0.319958 0.486593 -0.199944
v 0.310803 0.486593 -0.245852
v 0.317907 0.479091 -0.248803
v 0.319958 0.557607 -0.199944
v 0.299053 0.570108 -0.241002
v 0.310803 0.557607 -0.245852
v 0.319958 0.557607 -0.199944
v 0.307204 0.570108 -0.199944
v 0.299053 0.570108 -0.241002
v 0.319958 0.557607 -0.199944
v 0.299053 0.570108 -0.158886
v 0.307204 0.570108 -0.199944
v 0.319958 0.557607 -0.199944
v 0.310803 0.557607 -0.154035
v 0.299053 0.570108 -0.158886
v 0.248793 0.479091 0.317769
v 0.199934 0.479091 0.327469
v 0.199934 0.486593 0.319819
v 0.248793 0.479091 0.317769
v 0.199934 0.486593 0.319819
v 0.245842 0.486593 0.310668
v 0.290201 0.479091 0.290063
v 0.248793 0.479091 0.317769
v 0.245842 0.486593 0.310668
v 0.248793 0.479091 0.081824
v 0.245842 0.486593 0.088925
v 0.199934 0.479091 0.072122
v 0.245842 0.486593 0.088925
v 0.199934 0.486593 0.079773
v 0.199934 0.479091 0.072122
v 0.2848 0.486593 0.11493
v 0.245842 0.486593 0.088925
v 0.248793 0.479091 0.081824
v 0.290201 0.479091 0.109529
v 0.2848 0.486593 0.11493
v 0.248793 0.479091 0.081824
v 0.317907 0.479091 0.150937
v 0.2848 0.486593 0.11493
v 0.290201 0.479091 0.109529
v 0.317907 0.479091 0.150937
v 0.310803 0.486593 0.153888
v 0.2848 0.486593 0.11493
v 0.245842 0.557607 0.088925
v 0.240991 0.570108 0.100677
v 0.199934 0.570108 0.092526
v 0.319958 0.557607 0.199796
v 0.299053 0.570108 0.158739
v 0.310803 0.557607 0.153888
v 0.319958 0.557607 0.199796
v 0.299053 0.570108 0.240854
v 0.307204 0.570108 0.199796
v 0.319958 0.557607 0.199796
v 0.307204 0.570108 0.199796
v 0.299053 0.570108 0.158739
v 0.319958 0.557607 0.199796
v 0.310803 0.557607 0.245705
v 0.299053 0.570108 0.240854
v 0.319958 0.486593 0.199796
v 0.310803 0.486593 0.153888
v 0.317907 0.479091 0.150937
v 0.245842 0.557607 0.310668
v 0.199934 0.557607 0.319819
v 0.199934 0.570108 0.307067
v -0.290305 0.479091 0.290305
v -0.31801 0.479091 0.248897
v -0.310909 0.486593 0.245947
v -0.284904 0.486593 0.284904
v -0.290305 0.479091 0.290305
v -0.310909 0.486593 0.245947
v -0.245947 0.486593 0.310909
v -0.248897 0.479091 0.318011
v -0.284904 0.486593 0.284904
v -0.248897 0.479091 0.318011
v -0.290305 0.479091 0.290305
v -0.284904 0.486593 0.284904
v -0.284904 0.486593 0.115172
v -0.31801 0.479091 0.151179
v -0.290305 0.479091 0.109771
v -0.245947 0.486593 0.089167
v -0.284904 0.486593 0.115172
v -0.290305 0.479091 0.109771
v -0.245947 0.486593 0.089167
v -0.290305 0.479091 0.109771
v -0.248897 0.479091 0.082066
v -0.200038 0.486593 0.080015
v -0.245947 0.486593 0.089167
v -0.248897 0.479091 0.082066
v -0.200038 0.479091 0.072364
v -0.200038 0.486593 0.080015
v -0.248897 0.479091 0.082066
v -0.200038 0.479091 0.327713
v -0.248897 0.479091 0.318011
v -0.245947 0.486593 0.310909
v -0.200038 0.486593 0.320062
v -0.200038 0.479091 0.327713
v -0.245947 0.486593 0.310909
v -0.200038 0.557607 0.320062
v -0.245947 0.557607 0.310909
v -0.241096 0.570108 0.299157
v -0.200038 0.570108 0.307309
v -0.200038 0.557607 0.320062
v -0.241096 0.570108 0.299157
v -0.299157 0.570108 0.15898
v -0.307308 0.570108 0.200038
v -0.310909 0.557607 0.154129
v -0.200038 0.557607 0.080015
v -0.241096 0.570108 0.100919
v -0.245947 0.557607 0.089167
v -0.299157 0.570108 0.241096
v -0.310909 0.557607 0.245947
v -0.320061 0.557607 0.200038
v -0.299157 0.570108 0.241096
v -0.320061 0.557607 0.200038
v -0.307308 0.570108 0.200038
v -0.307308 0.570108 0.200038
v -0.320061 0.557607 0.200038
v -0.310909 0.557607 0.154129
v -0.310909 0.486593 0.245947
v -0.327713 0.479091 0.200038
v -0.320061 0.486593 0.200038
v -0.310909 0.486593 0.154129
v -0.320061 0.486593 0.200038
v -0.327713 0.479091 0.200038
v -0.310909 0.486593 0.154129
v -0.327713 0.479091 0.200038
v -0.31801 0.479091 0.151179
v -0.284904 0.486593 0.115172
v -0.310909 0.486593 0.154129
v -0.31801 0.479091 0.151179
v -0.310909 0.486593 0.245947
v -0.31801 0.479091 0.248897
v -0.327713 0.479091 0.200038
v -0.154129 0.557607 0.089167
v -0.200038 0.570108 0.092768
v -0.200038 0.557607 0.080015
v -0.200038 0.557607 0.080015
v -0.200038 0.570108 0.092768
v -0.241096 0.570108 0.100919
v -0.115172 0.486593 0.115172
v -0.154129 0.486593 0.089167
v -0.151179 0.479091 0.082066
v -0.109771 0.479091 0.109771
v -0.115172 0.486593 0.115172
v -0.151179 0.479091 0.082066
v -0.151179 0.479091 0.318011
v -0.200038 0.479091 0.327713
v -0.200038 0.486593 0.320062
v -0.151179 0.479091 0.318011
v -0.200038 0.486593 0.320062
v -0.154129 0.486593 0.310909
v -0.109771 0.479091 0.290305
v -0.151179 0.479091 0.318011
v -0.154129 0.486593 0.310909
v -0.151179 0.479091 0.082066
v -0.154129 0.486593 0.089167
v -0.200038 0.479091 0.072364
v -0.154129 0.486593 0.089167
v -0.200038 0.486593 0.080015
v -0.200038 0.479091 0.072364
v -0.082066 0.479091 0.151179
v -0.115172 0.486593 0.115172
v -0.109771 0.479091 0.109771
v -0.082066 0.479091 0.151179
v -0.089167 0.486593 0.154129
v -0.115172 0.486593 0.115172
v -0.080015 0.486593 0.200038
v -0.089167 0.486593 0.154129
v -0.082066 0.479091 0.151179
v -0.154129 0.557607 0.089167
v -0.15898 0.570108 0.100919
v -0.200038 0.570108 0.092768
v -0.089167 0.557607 0.154129
v -0.092767 0.570108 0.200038
v -0.100919 0.570108 0.15898
v -0.080015 0.557607 0.200038
v -0.100919 0.570108 0.241096
v -0.092767 0.570108 0.200038
v -0.080015 0.557607 0.200038
v -0.092767 0.570108 0.200038
v -0.089167 0.557607 0.154129
v -0.080015 0.557607 0.200038
v -0.089167 0.557607 0.245947
v -0.100919 0.570108 0.241096
v -0.082066 0.479091 -0.248561
v -0.115172 0.486593 -0.284568
v -0.109771 0.479091 -0.289969
v -0.082066 0.479091 -0.248561
v -0.089167 0.486593 -0.245611
v -0.115172 0.486593 -0.284568
v -0.115172 0.486593 -0.284568
v -0.154129 0.486593 -0.310573
v -0.151179 0.479091 -0.317673
v -0.154129 0.557607 -0.310573
v -0.15898 0.570108 -0.298821
v -0.200038 0.570108 -0.306972
v -0.080015 0.557607 -0.199702
v -0.100919 0.570108 -0.24076
v -0.089167 0.557607 -0.245611
v -0.080015 0.557607 -0.199702
v -0.100919 0.570108 -0.158644
v -0.092767 0.570108 -0.199702
v -0.080015 0.557607 -0.199702
v -0.092767 0.570108 -0.199702
v -0.100919 0.570108 -0.24076
v -0.080015 0.557607 -0.199702
v -0.089167 0.557607 -0.153793
v -0.100919 0.570108 -0.158644
v -0.080015 0.486593 -0.199702
v -0.089167 0.486593 -0.245611
v -0.082066 0.479091 -0.248561
v -0.154129 0.557607 0.310909
v -0.154129 0.486593 0.310909
v -0.200038 0.486593 0.320062
v -0.200038 0.557607 0.320062
v -0.154129 0.557607 0.310909
v -0.15898 0.570108 0.299157
v -0.124174 0.570108 0.275903
v -0.115172 0.557607 0.284904
v -0.154129 0.486593 0.310909
v -0.154129 0.557607 0.310909
v -0.115172 0.557607 0.284904
v -0.115172 0.486593 0.284904
v -0.200038 0.557607 -0.319724
v -0.200038 0.486593 -0.319724
v -0.154129 0.486593 -0.310573
v -0.154129 0.557607 -0.310573
v -0.200038 0.486593 -0.319724
v -0.200038 0.557607 -0.319724
v -0.245947 0.557607 -0.310573
v -0.245947 0.486593 -0.310573
v -0.245947 0.486593 -0.310573
v -0.245947 0.557607 -0.310573
v -0.284904 0.557607 -0.284568
v -0.284904 0.486593 -0.284568
v -0.310909 0.486593 -0.245611
v -0.284904 0.486593 -0.284568
v -0.284904 0.557607 -0.284568
v -0.310909 0.557607 -0.245611
v -0.320061 0.486593 -0.199702
v -0.310909 0.486593 -0.245611
v -0.310909 0.557607 -0.245611
v -0.320061 0.557607 -0.199702
v -0.310909 0.486593 -0.153793
v -0.320061 0.486593 -0.199702
v -0.320061 0.557607 -0.199702
v -0.310909 0.557607 -0.153793
v -0.284904 0.486593 -0.114836
v -0.310909 0.486593 -0.153793
v -0.310909 0.557607 -0.153793
v -0.284904 0.557607 -0.114836
v -0.284904 0.486593 -0.114836
v -0.284904 0.557607 -0.114836
v -0.245947 0.557607 -0.088831
v -0.245947 0.486593 -0.088831
v -0.200038 0.557607 -0.079679
v -0.200038 0.486593 -0.079679
v -0.245947 0.486593 -0.088831
v -0.245947 0.557607 -0.088831
v -0.299157 0.570108 -0.158644
v -0.307308 0.570108 -0.199702
v -0.299157 0.570108 -0.24076
v -0.275903 0.570108 -0.123837
v -0.275903 0.570108 -0.275566
v -0.241096 0.570108 -0.100583
v -0.241096 0.570108 -0.298821
v -0.200038 0.570108 -0.092431
v -0.200038 0.570108 -0.306972
v -0.15898 0.570108 -0.100583
v -0.15898 0.570108 -0.298821
v -0.124174 0.570108 -0.123837
v -0.124174 0.570108 -0.275566
v -0.100919 0.570108 -0.158644
v -0.100919 0.570108 -0.24076
v -0.092767 0.570108 -0.199702
v -0.299157 0.570108 -0.24076
v -0.310909 0.557607 -0.245611
v -0.284904 0.557607 -0.284568
v -0.275903 0.570108 -0.275566
v -0.275903 0.570108 -0.275566
v -0.284904 0.557607 -0.284568
v -0.245947 0.557607 -0.310573
v -0.241096 0.570108 -0.298821
v -0.284904 0.557607 -0.114836
v -0.310909 0.557607 -0.153793
v -0.299157 0.570108 -0.158644
v -0.275903 0.570108 -0.123837
v -0.245947 0.557607 -0.088831
v -0.284904 0.557607 -0.114836
v -0.275903 0.570108 -0.123837
v -0.241096 0.570108 -0.100583
v -0.154129 0.557607 -0.088831
v -0.15898 0.570108 -0.100583
v -0.124174 0.570108 -0.123837
v -0.115172 0.557607 -0.114836
v -0.154129 0.486593 -0.088831
v -0.154129 0.557607 -0.088831
v -0.115172 0.557607 -0.114836
v -0.115172 0.486593 -0.114836
v -0.154129 0.557607 -0.088831
v -0.154129 0.486593 -0.088831
v -0.200038 0.486593 -0.079679
v -0.200038 0.557607 -0.079679
v -0.398076 0.479091 -0.398076
v -0.398076 0.479091 0.398076
v -0.398076 0.001 0.398076
v -0.398076 0.001 -0.398076
v -0.398076 0.479091 -0.398076
v -0.398076 0.001 -0.398076
v 0.398076 0.001 -0.398076
v 0.398076 0.479091 -0.398076
v 0.398076 0.479091 0.398076
v 0.398076 0.479091 -0.398076
v 0.398076 0.001 -0.398076
v 0.398076 0.001 0.398076
v 0.398076 0.479091 0.398076
v 0.398076 0.001 0.398076
v -0.398076 0.001 0.398076
v -0.398076 0.479091 0.398076
v -0.340065 0.116349 -0.215041
v -0.340065 0.116349 -0.340065
v -0.340065 0.001 -0.340065
v -0.340065 0.007501 -0.215041
v -0.340065 0.116665 -0.215041
v -0.340065 0.116665 -0.185035
v -0.340065 0.116349 -0.185035
v -0.340065 0.007501 -0.185035
v -0.340065 0.116349 0.185035
v -0.340065 0.007501 0.185035
v -0.340065 0.129305 0.185035
v -0.340065 0.129305 0.215041
v -0.340065 0.116349 0.215041
v -0.340065 0.007501 0.215041
v -0.340065 0.001 0.340065
v -0.340065 0.116349 0.340065
v 0.340065 0.116349 0.215041
v 0.340065 0.116349 0.340065
v 0.340065 0.001 0.340065
v 0.340065 0.007501 0.215041
v 0.340065 0.001 -0.340065
v 0.340065 0.007501 0.185035
v 0.340065 0.007501 -0.185035
v 0.340065 0.116349 -0.185035
v 0.340065 0.116349 0.185035
v 0.340065 0.007501 -0.215041
v 0.340065 0.116349 -0.340065
v 0.340065 0.116349 -0.215041
v -0.215041 0.132781 0.320062
v -0.215041 0.132781 0.340065
v -0.215041 0.116349 0.340065
v -0.215041 0.116349 0.320062
v -0.215041 0.007501 0.340065
v -0.215041 0.007501 0.320062
v -0.185035 0.116349 0.320062
v -0.185035 0.132781 0.320062
v -0.215041 0.132781 0.320062
v -0.215041 0.116349 0.320062
v -0.185035 0.007501 0.320062
v -0.215041 0.007501 0.320062
v -0.185035 0.132781 0.320062
v -0.215041 0.132781 0.320062
v -0.215041 0.132781 0.340065
v -0.185035 0.132781 0.340065
v -0.185035 0.132781 0.340065
v -0.185035 0.132781 0.320062
v -0.185035 0.116349 0.320062
v -0.185035 0.116349 0.340065
v -0.185035 0.007501 0.320062
v -0.185035 0.007501 0.340065
v -0.185035 0.116349 0.340065
v -0.185035 0.132781 0.340065
v -0.215041 0.132781 0.340065
v -0.215041 0.116349 0.340065
v -0.185035 0.007501 0.340065
v -0.215041 0.007501 0.340065
v -0.340065 0.116349 0.340065
v -0.340065 0.001 0.340065
v 0.340065 0.001 0.340065
v 0.215041 0.007501 0.340065
v 0.340065 0.116349 0.340065
v 0.215041 0.116349 0.340065
v 0.185035 0.116349 0.340065
v 0.185035 0.007501 0.340065
v -0.185035 0.116349 -0.320062
v -0.185035 0.116349 -0.340065
v -0.185035 0.007501 -0.340065
v -0.185035 0.007501 -0.320062
v -0.185035 0.116349 -0.320062
v -0.185035 0.007501 -0.320062
v -0.215041 0.007501 -0.320062
v -0.215041 0.116349 -0.320062
v -0.215041 0.116349 -0.340065
v -0.215041 0.116349 -0.320062
v -0.215041 0.007501 -0.320062
v -0.215041 0.007501 -0.340065
v -0.185035 0.007501 -0.340065
v -0.215041 0.007501 -0.340065
v -0.215041 0.007501 -0.320062
v -0.185035 0.007501 -0.320062
v 0.215041 0.007501 -0.340065
v 0.185035 0.007501 -0.340065
v 0.185035 0.007501 -0.320062
v 0.215041 0.007501 -0.320062
v 0.215041 0.007501 -0.340065
v 0.215041 0.007501 -0.320062
v 0.215041 0.116349 -0.320062
v 0.215041 0.116349 -0.340065
v 0.215041 0.007501 -0.340065
v 0.215041 0.116349 -0.340065
v 0.340065 0.116349 -0.340065
v 0.340065 0.001 -0.340065
v -0.340065 0.001 -0.340065
v -0.215041 0.007501 -0.340065
v -0.340065 0.116349 -0.340065
v -0.215041 0.116349 -0.340065
v 0.185035 0.007501 -0.340065
v -0.185035 0.116349 -0.340065
v -0.185035 0.007501 -0.340065
v 0.185035 0.116349 -0.340065
v 0.340065 0.116349 -0.340065
v 0.215041 0.116349 -0.340065
v 0.215041 0.116349 -0.320062
v 0.215041 0.116349 0.320062
v 0.185035 0.116349 0.320062
v 0.185035 0.116349 -0.320062
v 0.185035 0.116349 0.340065
v 0.185035 0.116349 -0.340065
v 0.162531 0.116349 0
v 0.150179 0.116349 0.062212
v 0.150179 0.116349 -0.062212
v 0.114922 0.116349 0.114922
v 0.114922 0.116349 -0.114922
v 0.062212 0.116349 0.150179
v 0.062212 0.116349 -0.150178
v 0 0.116349 0.162531
v 0 0.116349 -0.162531
v -0.062212 0.116349 0.150179
v -0.062212 0.116349 -0.150178
v -0.114922 0.116349 0.114922
v -0.114922 0.116349 -0.114922
v -0.185035 0.116349 -0.320062
v -0.150178 0.116349 -0.062212
v -0.185035 0.116349 -0.340065
v -0.162531 0.116349 0
v -0.185035 0.116349 0.340065
v -0.150178 0.116349 0.062212
v -0.185035 0.116349 0.320062
v -0.215041 0.116349 0.320062
v -0.215041 0.116349 -0.320062
v -0.215041 0.116349 -0.340065
v -0.215041 0.116349 0.340065
v -0.320061 0.116349 0.215041
v -0.340065 0.116349 0.340065
v -0.340065 0.116349 0.215041
v -0.320061 0.116349 0.185035
v -0.320061 0.116349 -0.185035
v -0.340065 0.116349 0.185035
v -0.340065 0.116349 -0.185035
v -0.320061 0.116349 -0.215041
v -0.340065 0.116349 -0.215041
v -0.340065 0.116349 -0.340065
v 0.320062 0.116349 -0.215041
v 0.340065 0.116349 -0.215041
v 0.215041 0.116349 0.340065
v 0.320062 0.116349 0.215041
v 0.340065 0.116349 0.340065
v 0.340065 0.116349 0.215041
v 0.320062 0.116349 -0.185035
v 0.320062 0.116349 0.185035
v 0.340065 0.116349 -0.185035
v 0.340065 0.116349 0.185035
v 0.340065 0.007501 -0.215041
v 0.340065 0.116349 -0.215041
v 0.320062 0.116349 -0.215041
v 0.320062 0.007501 -0.215041
v 0.340065 0.007501 -0.215041
v 0.320062 0.007501 -0.215041
v 0.320062 0.007501 -0.185035
v 0.340065 0.007501 -0.185035
v 0.340065 0.116349 -0.185035
v 0.340065 0.007501 -0.185035
v 0.320062 0.007501 -0.185035
v 0.320062 0.116349 -0.185035
v 0.340065 0.007501 0.185035
v 0.340065 0.116349 0.185035
v 0.320062 0.116349 0.185035
v 0.320062 0.007501 0.185035
v 0.340065 0.007501 0.185035
v 0.320062 0.007501 0.185035
v 0.320062 0.007501 0.215041
v 0.340065 0.007501 0.215041
v 0.340065 0.116349 0.215041
v 0.340065 0.007501 0.215041
v 0.320062 0.007501 0.215041
v 0.320062 0.116349 0.215041
v 0.320062 0.116349 -0.215041
v 0.320062 0.116349 -0.185035
v 0.320062 0.007501 -0.185035
v 0.320062 0.007501 -0.215041
v 0.320062 0.116349 0.185035
v 0.320062 0.116349 0.215041
v 0.320062 0.007501 0.215041
v 0.320062 0.007501 0.185035
v 0.185035 0.007501 0.340065
v 0.215041 0.007501 0.340065
v 0.215041 0.007501 0.320062
v 0.185035 0.007501 0.320062
v 0.185035 0.007501 0.340065
v 0.185035 0.007501 0.320062
v 0.185035 0.116349 0.320062
v 0.185035 0.116349 0.340065
v -0.062212 0.116349 0.150179
v -0.062212 0.001 0.150179
v -0.114922 0.001 0.114922
v -0.114922 0.116349 0.114922
v -0.062212 0.227265 0.150179
v -0.114922 0.227265 0.114922
v -0.114922 0.001 0.114922
v -0.150178 0.001 0.062212
v -0.150178 0.116349 0.062212
v -0.114922 0.116349 0.114922
v -0.150178 0.227265 0.062212
v -0.114922 0.227265 0.114922
v -0.062212 0.116349 0.150179
v -0.062212 0.227265 0.150179
v 0 0.227265 0.162531
v 0 0.116349 0.162531
v -0.062212 0.001 0.150179
v 0 0.001 0.162531
v -0.110871 0.001 0.045909
v -0.084866 0.001 0.084866
v -0.084866 0.229793 0.084866
v -0.110871 0.229793 0.045909
v -0.120023 0.001 0
v -0.110871 0.001 0.045909
v -0.110871 0.229793 0.045909
v -0.120023 0.229793 0
v -0.110871 0.001 -0.045909
v -0.120023 0.001 0
v -0.120023 0.229793 0
v -0.110871 0.229793 -0.045909
v -0.084866 0.001 -0.084866
v -0.110871 0.001 -0.045909
v -0.110871 0.229793 -0.045909
v -0.084866 0.229793 -0.084866
v -0.084866 0.001 -0.084866
v -0.084866 0.229793 -0.084866
v -0.045908 0.229793 -0.110871
v -0.045908 0.001 -0.110871
v -0.150178 0.001 -0.062212
v -0.162531 0.001 0
v -0.150178 0.001 0.062212
v -0.114922 0.001 -0.114922
v -0.120023 0.001 0
v -0.114922 0.001 0.114922
v -0.110871 0.001 -0.045909
v -0.110871 0.001 0.045909
v -0.062212 0.001 -0.150178
v -0.084866 0.001 -0.084866
v -0.045908 0.001 -0.110871
v 0 0.001 -0.162531
v 0 0.001 -0.120023
v -0.062212 0.001 0.150179
v -0.084866 0.001 0.084866
v -0.045908 0.001 0.110871
v 0.062212 0.001 -0.150178
v 0.045909 0.001 -0.110871
v 0.084867 0.001 -0.084866
v 0 0.001 0.162531
v 0 0.001 0.120023
v 0.045909 0.001 0.110871
v 0.062212 0.001 0.150179
v 0.084867 0.001 0.084866
v 0.114922 0.001 -0.114922
v 0.110871 0.001 -0.045909
v 0.114922 0.001 0.114922
v 0.110871 0.001 0.045909
v 0.120023 0.001 0
v 0.150179 0.001 -0.062212
v 0.150179 0.001 0.062212
v 0.162531 0.001 0
v -0.150178 0.001 0.062212
v -0.162531 0.001 0
v -0.162531 0.116349 0
v -0.150178 0.116349 0.062212
v -0.162531 0.227265 0
v -0.150178 0.227265 0.062212
v -0.150178 0.227265 -0.062212
v -0.162531 0.227265 0
v -0.150178 0.227265 0.062212
v -0.114922 0.227265 -0.114922
v -0.114922 0.227265 0.114922
v -0.062212 0.227265 -0.150178
v -0.062212 0.227265 0.150179
v 0 0.227265 -0.162531
v 0 0.227265 0.162531
v 0.062212 0.227265 -0.150178
v 0.062212 0.227265 0.150179
v 0.114922 0.227265 -0.114922
v 0.114922 0.227265 0.114922
v 0.150179 0.227265 -0.062212
v 0.150179 0.227265 0.062212
v 0.162531 0.227265 0
v -0.114922 0.227265 -0.114922
v -0.150178 0.227265 -0.062212
v -0.150178 0.116349 -0.062212
v -0.114922 0.116349 -0.114922
v -0.150178 0.001 -0.062212
v -0.114922 0.001 -0.114922
v -0.062212 0.116349 -0.150178
v -0.062212 0.227265 -0.150178
v -0.114922 0.227265 -0.114922
v -0.114922 0.116349 -0.114922
v -0.062212 0.001 -0.150178
v -0.114922 0.001 -0.114922
v 0 0.116349 -0.162531
v 0 0.227265 -0.162531
v -0.062212 0.227265 -0.150178
v -0.062212 0.116349 -0.150178
v 0 0.001 -0.162531
v -0.062212 0.001 -0.150178
v 0 0.116349 -0.162531
v 0 0.001 -0.162531
v 0.062212 0.001 -0.150178
v 0.062212 0.116349 -0.150178
v 0 0.227265 -0.162531
v 0.062212 0.227265 -0.150178
v -0.162531 0.001 0
v -0.150178 0.001 -0.062212
v -0.150178 0.116349 -0.062212
v -0.162531 0.116349 0
v -0.150178 0.227265 -0.062212
v -0.162531 0.227265 0
v 0.150179 0.001 -0.062212
v 0.162531 0.001 0
v 0.162531 0.116349 0
v 0.150179 0.116349 -0.062212
v 0.162531 0.227265 0
v 0.150179 0.227265 -0.062212
v 0.162531 0.001 0
v 0.150179 0.001 0.062212
v 0.150179 0.116349 0.062212
v 0.162531 0.116349 0
v 0.150179 0.227265 0.062212
v 0.162531 0.227265 0
v 0.150179 0.001 0.062212
v 0.114922 0.001 0.114922
v 0.114922 0.116349 0.114922
v 0.150179 0.116349 0.062212
v 0.114922 0.227265 0.114922
v 0.150179 0.227265 0.062212
v 0.114922 0.116349 0.114922
v 0.114922 0.001 0.114922
v 0.062212 0.001 0.150179
v 0.062212 0.116349 0.150179
v 0.114922 0.227265 0.114922
v 0.062212 0.227265 0.150179
v 0.114922 0.116349 -0.114922
v 0.114922 0.227265 -0.114922
v 0.062212 0.227265 -0.150178
v 0.062212 0.116349 -0.150178
v 0.114922 0.001 -0.114922
v 0.062212 0.001 -0.150178
v 0.150179 0.227265 -0.062212
v 0.114922 0.227265 -0.114922
v 0.114922 0.116349 -0.114922
v 0.150179 0.116349 -0.062212
v 0.114922 0.001 -0.114922
v 0.150179 0.001 -0.062212
v 0.045909 0.229793 -0.110871
v 0.045909 0.001 -0.110871
v 0 0.001 -0.120023
v 0 0.229793 -0.120023
v -0.110871 0.229793 -0.045909
v -0.120023 0.229793 0
v -0.110871 0.229793 0.045909
v -0.084866 0.229793 -0.084866
v -0.084866 0.229793 0.084866
v -0.045908 0.229793 -0.110871
v -0.045908 0.229793 0.110871
v 0 0.229793 -0.120023
v 0 0.229793 0.120023
v 0.045909 0.229793 -0.110871
v 0.045909 0.229793 0.110871
v 0.084867 0.229793 -0.084866
v 0.084867 0.229793 0.084866
v 0.110871 0.229793 -0.045909
v 0.110871 0.229793 0.045909
v 0.120023 0.229793 0
v -0.045908 0.001 0.110871
v -0.045908 0.229793 0.110871
v -0.084866 0.229793 0.084866
v -0.084866 0.001 0.084866
v -0.045908 0.229793 0.110871
v -0.045908 0.001 0.110871
v 0 0.001 0.120023
v 0 0.229793 0.120023
v 0 0.229793 0.120023
v 0 0.001 0.120023
v 0.045909 0.001 0.110871
v 0.045909 0.229793 0.110871
v 0.045909 0.001 -0.110871
v 0.045909 0.229793 -0.110871
v 0.084867 0.229793 -0.084866
v 0.084867 0.001 -0.084866
v 0.110871 0.001 -0.045909
v 0.084867 0.001 -0.084866
v 0.084867 0.229793 -0.084866
v 0.110871 0.229793 -0.045909
v 0.120023 0.001 0
v 0.110871 0.001 -0.045909
v 0.110871 0.229793 -0.045909
v 0.120023 0.229793 0
v 0.110871 0.001 0.045909
v 0.120023 0.001 0
v 0.120023 0.229793 0
v 0.110871 0.229793 0.045909
v 0.084867 0.001 0.084866
v 0.110871 0.001 0.045909
v 0.110871 0.229793 0.045909
v 0.084867 0.229793 0.084866
v 0.084867 0.001 0.084866
v 0.084867 0.229793 0.084866
v 0.045909 0.229793 0.110871
v 0.045909 0.001 0.110871
v 0.062212 0.116349 0.150179
v 0.062212 0.001 0.150179
v 0 0.001 0.162531
v 0 0.116349 0.162531
v 0.062212 0.227265 0.150179
v 0 0.227265 0.162531
v -0.045908 0.001 -0.110871
v -0.045908 0.229793 -0.110871
v 0 0.229793 -0.120023
v 0 0.001 -0.120023
v 0.185035 0.116349 -0.340065
v 0.185035 0.116349 -0.320062
v 0.185035 0.007501 -0.320062
v 0.185035 0.007501 -0.340065
v 0.185035 0.007501 -0.320062
v 0.185035 0.116349 -0.320062
v 0.215041 0.116349 -0.320062
v 0.215041 0.007501 -0.320062
v 0.215041 0.007501 0.320062
v 0.215041 0.116349 0.320062
v 0.185035 0.116349 0.320062
v 0.185035 0.007501 0.320062
v 0.215041 0.116349 0.340065
v 0.215041 0.116349 0.320062
v 0.215041 0.007501 0.320062
v 0.215041 0.007501 0.340065
v -0.340065 0.116349 0.185035
v -0.340065 0.007501 0.185035
v -0.320061 0.007501 0.185035
v -0.320061 0.116349 0.185035
v -0.340065 0.129305 0.185035
v -0.320061 0.129305 0.185035
v -0.340065 0.116349 -0.215041
v -0.340065 0.007501 -0.215041
v -0.320061 0.007501 -0.215041
v -0.320061 0.116349 -0.215041
v -0.340065 0.116665 -0.215041
v -0.320061 0.116665 -0.215041
v -0.320061 0.116665 -0.215041
v -0.340065 0.116665 -0.215041
v -0.340065 0.116665 -0.185035
v -0.320061 0.116665 -0.185035
v -0.320061 0.116665 -0.185035
v -0.320061 0.116665 -0.215041
v -0.320061 0.116349 -0.215041
v -0.320061 0.116349 -0.185035
v -0.320061 0.007501 -0.215041
v -0.320061 0.007501 -0.185035
v -0.340065 0.116349 -0.185035
v -0.340065 0.116665 -0.185035
v -0.320061 0.116665 -0.185035
v -0.320061 0.116349 -0.185035
v -0.340065 0.007501 -0.185035
v -0.320061 0.007501 -0.185035
v -0.340065 0.007501 -0.185035
v -0.320061 0.007501 -0.185035
v -0.320061 0.007501 -0.215041
v -0.340065 0.007501 -0.215041
v -0.320061 0.129305 0.185035
v -0.340065 0.129305 0.185035
v -0.340065 0.129305 0.215041
v -0.320061 0.129305 0.215041
v -0.320061 0.129305 0.215041
v -0.320061 0.129305 0.185035
v -0.320061 0.116349 0.185035
v -0.320061 0.116349 0.215041
v -0.320061 0.007501 0.185035
v -0.320061 0.007501 0.215041
v -0.340065 0.116349 0.215041
v -0.340065 0.129305 0.215041
v -0.320061 0.129305 0.215041
v -0.320061 0.116349 0.215041
v -0.340065 0.007501 0.215041
v -0.320061 0.007501 0.215041
v -0.340065 0.007501 0.215041
v -0.320061 0.007501 0.215041
v -0.320061 0.007501 0.185035
v -0.340065 0.007501 0.185035
v -0.185035 0.007501 0.320062
v -0.215041 0.007501 0.320062
v -0.215041 0.007501 0.340065
v -0.185035 0.007501 0.340065
v 0.154025 0.557607 -0.310815
v 0.154025 0.486593 -0.310815
v 0.199934 0.486593 -0.319967
v 0.199934 0.557607 -0.319967
v 0.154025 0.557607 -0.310815
v 0.158876 0.570108 -0.299063
v 0.124069 0.570108 -0.275808
v 0.115068 0.557607 -0.28481
v 0.154025 0.486593 -0.310815
v 0.154025 0.557607 -0.310815
v 0.115068 0.557607 -0.28481
v 0.115068 0.486593 -0.28481
v 0.089063 0.486593 -0.154035
v 0.079911 0.486593 -0.199944
v 0.079911 0.557607 -0.199944
v 0.089063 0.557607 -0.154035
v 0.115068 0.486593 -0.115078
v 0.089063 0.486593 -0.154035
v 0.089063 0.557607 -0.154035
v 0.115068 0.557607 -0.115078
v 0.115068 0.486593 -0.115078
v 0.115068 0.557607 -0.115078
v 0.154025 0.557607 -0.089073
v 0.154025 0.486593 -0.089073
v 0.089063 0.486593 0.245705
v 0.079911 0.486593 0.199796
v 0.079911 0.557607 0.199796
v 0.089063 0.557607 0.245705
v 0.115068 0.486593 0.284662
v 0.089063 0.486593 0.245705
v 0.089063 0.557607 0.245705
v 0.115068 0.557607 0.284662
v 0.115068 0.486593 0.284662
v 0.115068 0.557607 0.284662
v 0.154025 0.557607 0.310668
v 0.154025 0.486593 0.310668
v 0.199934 0.557607 0.319819
v 0.199934 0.486593 0.319819
v 0.154025 0.486593 0.310668
v 0.154025 0.557607 0.310668
v 0.100815 0.570108 0.240854
v 0.092663 0.570108 0.199796
v 0.100815 0.570108 0.158739
v 0.124069 0.570108 0.275661
v 0.124069 0.570108 0.123932
v 0.158876 0.570108 0.298915
v 0.158876 0.570108 0.100677
v 0.199934 0.570108 0.307067
v 0.199934 0.570108 0.092526
v 0.240991 0.570108 0.298915
v 0.240991 0.570108 0.100677
v 0.275798 0.570108 0.275661
v 0.275798 0.570108 0.123932
v 0.299053 0.570108 0.240854
v 0.299053 0.570108 0.158739
v 0.307204 0.570108 0.199796
v 0.100815 0.570108 0.158739
v 0.089063 0.557607 0.153888
v 0.115068 0.557607 0.11493
v 0.124069 0.570108 0.123932
v 0.124069 0.570108 0.123932
v 0.115068 0.557607 0.11493
v 0.154025 0.557607 0.088925
v 0.158876 0.570108 0.100677
v 0.199934 0.486593 0.079773
v 0.199934 0.557607 0.079773
v 0.154025 0.557607 0.088925
v 0.154025 0.486593 0.088925
v 0.154025 0.486593 0.088925
v 0.154025 0.557607 0.088925
v 0.115068 0.557607 0.11493
v 0.115068 0.486593 0.11493
v 0.089063 0.486593 0.153888
v 0.115068 0.486593 0.11493
v 0.115068 0.557607 0.11493
v 0.089063 0.557607 0.153888
v 0.079911 0.486593 0.199796
v 0.089063 0.486593 0.153888
v 0.089063 0.557607 0.153888
v 0.079911 0.557607 0.199796
v 0.115068 0.557607 0.284662
v 0.089063 0.557607 0.245705
v 0.100815 0.570108 0.240854
v 0.124069 0.570108 0.275661
v 0.154025 0.557607 0.310668
v 0.115068 0.557607 0.284662
v 0.124069 0.570108 0.275661
v 0.158876 0.570108 0.298915
v 0.199934 0.557607 0.079773
v 0.199934 0.486593 0.079773
v 0.245842 0.486593 0.088925
v 0.245842 0.557607 0.088925
v 0.245842 0.557607 0.310668
v 0.240991 0.570108 0.298915
v 0.275798 0.570108 0.275661
v 0.2848 0.557607 0.284662
v 0.245842 0.486593 0.310668
v 0.245842 0.557607 0.310668
v 0.2848 0.557607 0.284662
v 0.2848 0.486593 0.284662
v 0.199934 0.557607 -0.079921
v 0.199934 0.486593 -0.079921
v 0.154025 0.486593 -0.089073
v 0.154025 0.557607 -0.089073
v 0.100815 0.570108 -0.158886
v 0.092663 0.570108 -0.199944
v 0.100815 0.570108 -0.241002
v 0.124069 0.570108 -0.124079
v 0.124069 0.570108 -0.275808
v 0.158876 0.570108 -0.100825
v 0.158876 0.570108 -0.299063
v 0.199934 0.570108 -0.092673
v 0.199934 0.570108 -0.307214
v 0.240991 0.570108 -0.100825
v 0.240991 0.570108 -0.299063
v 0.275798 0.570108 -0.124079
v 0.275798 0.570108 -0.275808
v 0.299053 0.570108 -0.158886
v 0.299053 0.570108 -0.241002
v 0.307204 0.570108 -0.199944
v 0.100815 0.570108 -0.241002
v 0.089063 0.557607 -0.245852
v 0.115068 0.557607 -0.28481
v 0.124069 0.570108 -0.275808
v 0.115068 0.557607 -0.28481
v 0.089063 0.557607 -0.245852
v 0.089063 0.486593 -0.245852
v 0.115068 0.486593 -0.28481
v 0.079911 0.486593 -0.199944
v 0.089063 0.486593 -0.245852
v 0.089063 0.557607 -0.245852
v 0.079911 0.557607 -0.199944
v 0.115068 0.557607 -0.115078
v 0.089063 0.557607 -0.154035
v 0.100815 0.570108 -0.158886
v 0.124069 0.570108 -0.124079
v 0.154025 0.557607 -0.089073
v 0.115068 0.557607 -0.115078
v 0.124069 0.570108 -0.124079
v 0.158876 0.570108 -0.100825
v 0.245842 0.557607 -0.089073
v 0.240991 0.570108 -0.100825
v 0.275798 0.570108 -0.124079
v 0.2848 0.557607 -0.115078
v 0.245842 0.486593 -0.089073
v 0.245842 0.557607 -0.089073
v 0.2848 0.557607 -0.115078
v 0.2848 0.486593 -0.115078
v 0.245842 0.557607 -0.089073
v 0.245842 0.486593 -0.089073
v 0.199934 0.486593 -0.079921
v 0.199934 0.557607 -0.079921
v 0.199934 0.557607 -0.319967
v 0.199934 0.486593 -0.319967
v 0.245842 0.486593 -0.310815
v 0.245842 0.557607 -0.310815
v 0.2848 0.557607 -0.115078
v 0.275798 0.570108 -0.124079
v 0.299053 0.570108 -0.158886
v 0.310803 0.557607 -0.154035
v 0.2848 0.557607 -0.115078
v 0.310803 0.557607 -0.154035
v 0.310803 0.486593 -0.154035
v 0.2848 0.486593 -0.115078
v 0.319958 0.486593 -0.199944
v 0.310803 0.486593 -0.154035
v 0.310803 0.557607 -0.154035
v 0.319958 0.557607 -0.199944
v 0.310803 0.486593 -0.245852
v 0.319958 0.486593 -0.199944
v 0.319958 0.557607 -0.199944
v 0.310803 0.557607 -0.245852
v 0.2848 0.486593 -0.28481
v 0.310803 0.486593 -0.245852
v 0.310803 0.557607 -0.245852
v 0.2848 0.557607 -0.28481
v 0.2848 0.486593 -0.28481
v 0.2848 0.557607 -0.28481
v 0.245842 0.557607 -0.310815
v 0.245842 0.486593 -0.310815
v 0.245842 0.557607 -0.310815
v 0.2848 0.557607 -0.28481
v 0.275798 0.570108 -0.275808
v 0.240991 0.570108 -0.299063
v 0.299053 0.570108 -0.241002
v 0.275798 0.570108 -0.275808
v 0.2848 0.557607 -0.28481
v 0.310803 0.557607 -0.245852
v 0.2848 0.486593 0.11493
v 0.310803 0.486593 0.153888
v 0.310803 0.557607 0.153888
v 0.2848 0.557607 0.11493
v 0.2848 0.486593 0.11493
v 0.2848 0.557607 0.11493
v 0.245842 0.557607 0.088925
v 0.245842 0.486593 0.088925
v 0.245842 0.557607 0.088925
v 0.2848 0.557607 0.11493
v 0.275798 0.570108 0.123932
v 0.240991 0.570108 0.100677
v 0.2848 0.557607 0.284662
v 0.275798 0.570108 0.275661
v 0.299053 0.570108 0.240854
v 0.310803 0.557607 0.245705
v 0.2848 0.557607 0.284662
v 0.310803 0.557607 0.245705
v 0.310803 0.486593 0.245705
v 0.2848 0.486593 0.284662
v 0.319958 0.486593 0.199796
v 0.310803 0.486593 0.245705
v 0.310803 0.557607 0.245705
v 0.319958 0.557607 0.199796
v 0.310803 0.486593 0.153888
v 0.319958 0.486593 0.199796
v 0.319958 0.557607 0.199796
v 0.310803 0.557607 0.153888
v 0.2848 0.557607 0.11493
v 0.310803 0.557607 0.153888
v 0.299053 0.570108 0.158739
v 0.275798 0.570108 0.123932
v 0.245842 0.557607 0.310668
v 0.245842 0.486593 0.310668
v 0.199934 0.486593 0.319819
v 0.199934 0.557607 0.319819
v -0.284904 0.486593 0.284904
v -0.310909 0.486593 0.245947
v -0.310909 0.557607 0.245947
v -0.284904 0.557607 0.284904
v -0.284904 0.486593 0.284904
v -0.284904 0.557607 0.284904
v -0.245947 0.557607 0.310909
v -0.245947 0.486593 0.310909
v -0.200038 0.557607 0.320062
v -0.200038 0.486593 0.320062
v -0.245947 0.486593 0.310909
v -0.245947 0.557607 0.310909
v -0.299157 0.570108 0.241096
v -0.307308 0.570108 0.200038
v -0.299157 0.570108 0.15898
v -0.275903 0.570108 0.275903
v -0.275903 0.570108 0.124174
v -0.241096 0.570108 0.299157
v -0.241096 0.570108 0.100919
v -0.200038 0.570108 0.307309
v -0.200038 0.570108 0.092768
v -0.15898 0.570108 0.299157
v -0.15898 0.570108 0.100919
v -0.124174 0.570108 0.275903
v -0.124174 0.570108 0.124174
v -0.100919 0.570108 0.241096
v -0.100919 0.570108 0.15898
v -0.092767 0.570108 0.200038
v -0.299157 0.570108 0.15898
v -0.310909 0.557607 0.154129
v -0.284904 0.557607 0.115172
v -0.275903 0.570108 0.124174
v -0.275903 0.570108 0.124174
v -0.284904 0.557607 0.115172
v -0.245947 0.557607 0.089167
v -0.241096 0.570108 0.100919
v -0.200038 0.486593 0.080015
v -0.200038 0.557607 0.080015
v -0.245947 0.557607 0.089167
v -0.245947 0.486593 0.089167
v -0.245947 0.486593 0.089167
v -0.245947 0.557607 0.089167
v -0.284904 0.557607 0.115172
v -0.284904 0.486593 0.115172
v -0.310909 0.486593 0.154129
v -0.284904 0.486593 0.115172
v -0.284904 0.557607 0.115172
v -0.310909 0.557607 0.154129
v -0.320061 0.486593 0.200038
v -0.310909 0.486593 0.154129
v -0.310909 0.557607 0.154129
v -0.320061 0.557607 0.200038
v -0.310909 0.486593 0.245947
v -0.320061 0.486593 0.200038
v -0.320061 0.557607 0.200038
v -0.310909 0.557607 0.245947
v -0.284904 0.557607 0.284904
v -0.310909 0.557607 0.245947
v -0.299157 0.570108 0.241096
v -0.275903 0.570108 0.275903
v -0.245947 0.557607 0.310909
v -0.284904 0.557607 0.284904
v -0.275903 0.570108 0.275903
v -0.241096 0.570108 0.299157
v -0.200038 0.557607 0.080015
v -0.200038 0.486593 0.080015
v -0.154129 0.486593 0.089167
v -0.154129 0.557607 0.089167
v -0.115172 0.557607 0.284904
v -0.124174 0.570108 0.275903
v -0.100919 0.570108 0.241096
v -0.089167 0.557607 0.245947
v -0.115172 0.557607 0.284904
v -0.089167 0.557607 0.245947
v -0.089167 0.486593 0.245947
v -0.115172 0.486593 0.284904
v -0.080015 0.486593 0.200038
v -0.089167 0.486593 0.245947
v -0.089167 0.557607 0.245947
v -0.080015 0.557607 0.200038
v -0.089167 0.486593 0.154129
v -0.080015 0.486593 0.200038
v -0.080015 0.557607 0.200038
v -0.089167 0.557607 0.154129
v -0.115172 0.486593 0.115172
v -0.089167 0.486593 0.154129
v -0.089167 0.557607 0.154129
v -0.115172 0.557607 0.115172
v -0.115172 0.486593 0.115172
v -0.115172 0.557607 0.115172
v -0.154129 0.557607 0.089167
v -0.154129 0.486593 0.089167
v -0.154129 0.557607 0.089167
v -0.115172 0.557607 0.115172
v -0.124174 0.570108 0.124174
v -0.15898 0.570108 0.100919
v -0.100919 0.570108 0.15898
v -0.124174 0.570108 0.124174
v -0.115172 0.557607 0.115172
v -0.089167 0.557607 0.154129
v -0.115172 0.486593 -0.284568
v -0.089167 0.486593 -0.245611
v -0.089167 0.557607 -0.245611
v -0.115172 0.557607 -0.284568
v -0.115172 0.486593 -0.284568
v -0.115172 0.557607 -0.284568
v -0.154129 0.557607 -0.310573
v -0.154129 0.486593 -0.310573
v -0.154129 0.557607 -0.310573
v -0.115172 0.557607 -0.284568
v -0.124174 0.570108 -0.275566
v -0.15898 0.570108 -0.298821
v -0.115172 0.557607 -0.114836
v -0.124174 0.570108 -0.123837
v -0.100919 0.570108 -0.158644
v -0.089167 0.557607 -0.153793
v -0.115172 0.557607 -0.114836
v -0.089167 0.557607 -0.153793
v -0.089167 0.486593 -0.153793
v -0.115172 0.486593 -0.114836
v -0.080015 0.486593 -0.199702
v -0.089167 0.486593 -0.153793
v -0.089167 0.557607 -0.153793
v -0.080015 0.557607 -0.199702
v -0.089167 0.486593 -0.245611
v -0.080015 0.486593 -0.199702
v -0.080015 0.557607 -0.199702
v -0.089167 0.557607 -0.245611
v -0.115172 0.557607 -0.284568
v -0.089167 0.557607 -0.245611
v -0.100919 0.570108 -0.24076
v -0.124174 0.570108 -0.275566
v -0.398076 0.001 -0.398076
v -0.398076 0.001 0.398076
v -0.340065 0.001 -0.340065
v 0.398076 0.001 -0.398076
v -0.340065 0.001 0.340065
v 0.340065 0.001 -0.340065
v 0.398076 0.001 0.398076
v 0.340065 0.001 0.340065
v -0.082066 0.479091 -0.150843
v -0.072364 0.479091 0.200038
v -0.082066 0.479091 0.151179
v -0.072364 0.479091 -0.199702
v -0.082066 0.479091 -0.248561
v -0.109771 0.479091 0.109771
v -0.082066 0.479091 0.248897
v -0.109771 0.479091 -0.289969
v -0.109771 0.479091 -0.109435
v 0.398076 0.479091 -0.398076
v 0.151075 0.479091 -0.317917
v -0.151179 0.479091 -0.317673
v -0.200038 0.479091 -0.327378
v -0.151179 0.479091 -0.081729
v -0.151179 0.479091 0.082066
v -0.109771 0.479091 0.290305
v -0.200038 0.479091 -0.072027
v 0.398076 0.479091 0.398076
v -0.151179 0.479091 0.318011
v 0.151075 0.479091 0.317769
v -0.200038 0.479091 0.327713
v 0.327608 0.479091 -0.199944
v -0.200038 0.479091 0.072364
v -0.248897 0.479091 -0.317673
v -0.248897 0.479091 -0.081729
v -0.398076 0.479091 -0.398076
v -0.248897 0.479091 0.082066
v -0.290305 0.479091 -0.289969
v -0.290305 0.479091 -0.109435
v -0.31801 0.479091 -0.248561
v -0.248897 0.479091 0.318011
v -0.290305 0.479091 0.109771
v -0.31801 0.479091 -0.150843
v -0.327713 0.479091 -0.199702
v -0.398076 0.479091 0.398076
v -0.31801 0.479091 0.151179
v -0.327713 0.479091 0.200038
v -0.290305 0.479091 0.290305
v -0.31801 0.479091 0.248897
v 0.327608 0.479091 0.199796
v 0.317907 0.479091 -0.151084
v 0.317907 0.479091 -0.248803
v 0.290201 0.479091 -0.290211
v 0.317907 0.479091 0.150937
v 0.290201 0.479091 -0.109677
v 0.248793 0.479091 -0.317917
v 0.317907 0.479091 0.248656
v 0.199934 0.479091 -0.327618
v 0.290201 0.479091 0.109529
v 0.248793 0.479091 -0.081971
v 0.290201 0.479091 0.290063
v 0.199934 0.479091 -0.07227
v 0.248793 0.479091 0.081824
v 0.248793 0.479091 0.317769
v 0.199934 0.479091 0.072122
v 0.199934 0.479091 0.327469
v 0.151075 0.479091 -0.081971
v 0.151075 0.479091 0.081824
v 0.109667 0.479091 -0.290211
v 0.109667 0.479091 -0.109677
v 0.109667 0.479091 0.109529
v 0.081961 0.479091 -0.248803
v 0.081961 0.479091 -0.151084
v 0.109667 0.479091 0.290063
v 0.072259 0.479091 -0.199944
v 0.081961 0.479091 0.150937
v 0.081961 0.479091 0.248656
v 0.072259 0.479091 0.199796
f 1 3 2
f 4 6 5
f 7 9 8
f 10 12 11
f 13 15 14
f 16 18 17
f 19 21 20
f 22 24 23
f 25 27 26
f 28 30 29
f 31 33 32
f 34 36 35
f 37 39 38
f 40 42 41
f 43 45 44
f 46 48 47
f 49 51 50
f 52 54 53
f 55 57 56
f 58 60 59
f 61 63 62
f 64 66 65
f 67 69 68
f 70 72 71
f 73 75 74
f 76 78 77
f 79 81 80
f 82 84 83
f 85 87 86
f 88 90 89
f 91 93 92
f 94 96 95
f 97 99 98
f 100 102 101
f 103 105 104
f 106 108 107
f 109 111 110
f 112 114 113
f 115 117 116
f 118 120 119
f 121 123 122
f 124 126 125
f 127 129 128
f 130 132 131
f 133 135 134
f 136 138 137
f 139 141 140
f 142 144 143
f 145 147 146
f 148 150 149
f 151 153 152
f 154 156 155
f 157 159 158
f 160 162 161
f 163 165 164
f 166 168 167
f 169 171 170
f 172 174 173
f 175 177 176
f 178 180 179
f 181 183 182
f 184 186 185
f 187 189 188
f 190 192 191
f 193 195 194
f 196 198 197
f 199 201 200
f 202 204 203
f 205 207 206
f 208 210 209
f 211 213 212
f 214 216 215
f 217 219 218
f 220 222 221
f 223 225 224
f 226 228 227
f 229 231 230
f 232 234 233
f 235 237 236
f 238 240 239
f 241 243 242
f 244 246 245
f 247 249 248
f 250 252 251
f 253 255 254
f 256 258 257
f 259 261 260
f 262 264 263
f 265 267 266
f 268 270 269
f 271 273 272
f 274 276 275
f 277 279 278
f 280 282 281
f 283 285 284
f 286 288 287
f 289 291 290
f 292 294 293
f 295 297 296
f 298 300 299
f 301 303 302
f 304 306 305
f 307 309 308
f 310 312 311
f 313 315 314
f 316 318 317
f 319 321 320
f 322 324 323
f 325 327 326
f 328 330 329
f 331 333 332
f 334 336 335
f 337 339 338
f 340 342 341
f 343 345 344
f 346 348 347
f 349 351 350
f 352 354 353
f 355 357 356
f 358 360 359
f 361 363 362
f 364 366 365
f 367 369 368
f 370 372 371
f 373 375 374
f 376 378 377
f 379 381 380
f 382 384 383
f 385 387 386
f 388 390 389
f 391 393 392
f 394 396 395
f 397 399 398
f 400 402 401
f 403 405 404
f 406 408 407
f 409 411 410
f 412 414 413
f 415 417 416
f 418 420 419
f 421 423 422
f 424 426 425
f 427 429 428
f 430 432 431
f 433 435 434
f 436 438 437
f 439 441 440
f 442 444 443
f 445 447 446
f 448 450 449
f 451 453 452
f 454 456 455
f 457 459 458
f 460 462 461
f 463 465 464
f 466 468 467
f 469 471 470
f 472 474 473
f 475 477 476
f 478 480 479
f 481 483 482
f 484 486 485
f 487 489 488
f 490 492 491
f 493 495 494
f 496 498 497
f 499 501 500
f 502 504 503
f 505 507 506
f 508 510 509
f 511 513 512
f 514 516 515
f 517 519 518
f 520 522 521
f 523 525 524
f 526 528 527
f 529 531 530
f 532 534 533
f 535 537 536
f 538 540 539
f 541 543 542
f 544 546 545
f 547 549 548
f 550 552 551
f 553 555 554
f 556 558 557
f 559 561 560
f 562 564 563
f 565 567 566
f 568 570 569
f 571 573 572
f 574 576 575
f 577 579 578
f 579 577 580
f 581 583 582
f 583 581 584
f 585 587 586
f 587 585 588
f 589 591 590
f 591 589 592
f 593 595 594
f 595 593 596
f 597 599 598
f 599 597 600
f 601 603 602
f 603 601 604
f 605 607 606
f 607 605 608
f 609 611 610
f 611 609 612
f 613 615 614
f 615 613 616
f 617 619 618
f 619 617 620
f 621 623 622
f 623 621 624
f 625 627 626
f 627 625 628
f 627 628 629
f 629 628 630
f 629 630 631
f 631 630 632
f 631 632 633
f 633 632 634
f 633 634 635
f 635 634 636
f 635 636 637
f 637 636 638
f 637 638 639
f 639 638 640
f 641 643 642
f 643 641 644
f 645 647 646
f 647 645 648
f 649 651 650
f 651 649 652
f 653 655 654
f 655 653 656
f 657 659 658
f 659 657 660
f 661 663 662
f 663 661 664
f 665 667 666
f 667 665 668
f 669 671 670
f 671 669 672
f 673 675 674
f 675 673 676
f 677 679 678
f 679 677 680
f 681 683 682
f 683 681 684
f 685 687 686
f 688 687 685
f 689 688 685
f 690 688 689
f 691 688 690
f 688 691 692
f 692 687 688
f 691 693 692
f 694 692 693
f 694 687 692
f 695 694 693
f 696 694 695
f 697 694 696
f 698 687 694
f 694 697 698
f 698 699 687
f 697 700 698
f 699 698 700
f 701 703 702
f 703 701 704
f 703 704 705
f 705 704 706
f 705 706 707
f 707 706 708
f 708 706 709
f 705 707 710
f 705 710 711
f 711 710 712
f 713 715 714
f 715 713 716
f 716 717 715
f 717 716 718
f 719 721 720
f 721 719 722
f 723 722 719
f 722 723 724
f 725 727 726
f 727 725 728
f 729 731 730
f 731 729 732
f 732 733 731
f 733 732 734
f 735 737 736
f 735 738 737
f 739 738 735
f 738 739 740
f 740 741 738
f 740 742 741
f 742 740 743
f 744 743 740
f 744 740 739
f 743 744 745
f 745 744 746
f 744 747 746
f 735 748 739
f 744 739 748
f 748 735 747
f 747 744 748
f 749 751 750
f 751 749 752
f 753 755 754
f 755 753 756
f 757 759 758
f 759 757 760
f 761 763 762
f 763 761 764
f 765 767 766
f 767 765 768
f 769 771 770
f 771 769 772
f 773 775 774
f 773 776 775
f 776 773 777
f 778 777 773
f 777 778 779
f 779 778 780
f 778 773 781
f 778 782 780
f 778 781 783
f 782 778 783
f 784 783 781
f 783 784 782
f 785 787 786
f 787 785 788
f 789 787 788
f 787 789 790
f 791 790 789
f 788 791 789
f 791 792 790
f 791 793 792
f 791 794 793
f 795 792 793
f 791 796 794
f 797 792 795
f 791 798 796
f 799 792 797
f 791 800 798
f 801 792 799
f 791 802 800
f 803 792 801
f 791 804 802
f 805 792 803
f 806 792 805
f 806 805 807
f 792 806 808
f 806 807 809
f 810 804 791
f 804 810 811
f 811 810 809
f 812 809 810
f 806 809 812
f 813 806 812
f 814 808 806
f 806 813 814
f 808 814 815
f 816 814 813
f 816 815 814
f 816 817 815
f 818 817 816
f 817 818 819
f 820 815 817
f 821 815 820
f 822 821 820
f 821 822 823
f 824 815 821
f 825 815 824
f 815 825 826
f 827 785 828
f 829 785 827
f 788 785 829
f 791 788 829
f 830 829 827
f 829 830 831
f 831 830 832
f 830 827 833
f 830 833 834
f 835 834 833
f 834 835 836
f 837 839 838
f 839 837 840
f 841 843 842
f 843 841 844
f 845 847 846
f 847 845 848
f 849 851 850
f 851 849 852
f 853 855 854
f 855 853 856
f 857 859 858
f 859 857 860
f 861 863 862
f 863 861 864
f 865 867 866
f 867 865 868
f 869 871 870
f 871 869 872
f 873 875 874
f 875 873 876
f 877 879 878
f 879 877 880
f 881 880 877
f 880 881 882
f 883 885 884
f 885 883 886
f 886 887 885
f 887 886 888
f 889 891 890
f 891 889 892
f 893 892 889
f 892 893 894
f 895 897 896
f 897 895 898
f 899 901 900
f 901 899 902
f 903 905 904
f 905 903 906
f 907 909 908
f 909 907 910
f 911 913 912
f 913 911 914
f 915 917 916
f 917 915 918
f 917 918 919
f 919 920 917
f 919 918 921
f 920 919 922
f 921 918 923
f 921 923 924
f 924 923 925
f 925 923 926
f 925 926 927
f 920 922 928
f 928 922 929
f 928 929 930
f 927 926 931
f 927 931 932
f 932 931 933
f 928 930 934
f 934 930 935
f 934 935 936
f 934 936 937
f 937 936 938
f 933 931 939
f 933 939 940
f 937 938 941
f 941 938 942
f 940 939 943
f 941 942 943
f 943 939 944
f 941 943 945
f 945 943 944
f 945 944 946
f 947 949 948
f 949 947 950
f 950 951 949
f 951 950 952
f 953 955 954
f 955 953 956
f 955 956 957
f 957 956 958
f 957 958 959
f 959 958 960
f 959 960 961
f 961 960 962
f 961 962 963
f 963 962 964
f 963 964 965
f 965 964 966
f 965 966 967
f 967 966 968
f 969 971 970
f 971 969 972
f 972 973 971
f 973 972 974
f 975 977 976
f 977 975 978
f 979 978 975
f 978 979 980
f 981 983 982
f 983 981 984
f 985 984 981
f 984 985 986
f 987 989 988
f 989 987 990
f 991 990 987
f 990 991 992
f 993 995 994
f 995 993 996
f 996 997 995
f 997 996 998
f 999 1001 1000
f 1001 999 1002
f 1002 1003 1001
f 1003 1002 1004
f 1005 1007 1006
f 1007 1005 1008
f 1008 1009 1007
f 1009 1008 1010
f 1011 1013 1012
f 1013 1011 1014
f 1014 1015 1013
f 1015 1014 1016
f 1017 1019 1018
f 1019 1017 1020
f 1021 1020 1017
f 1020 1021 1022
f 1023 1025 1024
f 1025 1023 1026
f 1027 1026 1023
f 1026 1027 1028
f 1029 1031 1030
f 1031 1029 1032
f 1032 1033 1031
f 1033 1032 1034
f 1035 1037 1036
f 1037 1035 1038
f 1039 1041 1040
f 1041 1039 1042
f 1041 1042 1043
f 1043 1042 1044
f 1043 1044 1045
f 1045 1044 1046
f 1045 1046 1047
f 1047 1046 1048
f 1047 1048 1049
f 1049 1048 1050
f 1049 1050 1051
f 1051 1050 1052
f 1051 1052 1053
f 1053 1052 1054
f 1055 1057 1056
f 1057 1055 1058
f 1059 1061 1060
f 1061 1059 1062
f 1063 1065 1064
f 1065 1063 1066
f 1067 1069 1068
f 1069 1067 1070
f 1071 1073 1072
f 1073 1071 1074
f 1075 1077 1076
f 1077 1075 1078
f 1079 1081 1080
f 1081 1079 1082
f 1083 1085 1084
f 1085 1083 1086
f 1087 1089 1088
f 1089 1087 1090
f 1091 1093 1092
f 1093 1091 1094
f 1095 1094 1091
f 1094 1095 1096
f 1097 1099 1098
f 1099 1097 1100
f 1101 1103 1102
f 1103 1101 1104
f 1105 1107 1106
f 1107 1105 1108
f 1109 1111 1110
f 1111 1109 1112
f 1113 1115 1114
f 1115 1113 1116
f 1117 1119 1118
f 1119 1117 1120
f 1121 1120 1117
f 1120 1121 1122
f 1123 1125 1124
f 1125 1123 1126
f 1127 1126 1123
f 1126 1127 1128
f 1129 1131 1130
f 1131 1129 1132
f 1133 1135 1134
f 1135 1133 1136
f 1136 1137 1135
f 1137 1136 1138
f 1139 1141 1140
f 1141 1139 1142
f 1143 1142 1139
f 1142 1143 1144
f 1145 1147 1146
f 1147 1145 1148
f 1149 1151 1150
f 1151 1149 1152
f 1153 1155 1154
f 1155 1153 1156
f 1156 1157 1155
f 1157 1156 1158
f 1159 1161 1160
f 1161 1159 1162
f 1163 1162 1159
f 1162 1163 1164
f 1165 1167 1166
f 1167 1165 1168
f 1169 1171 1170
f 1171 1169 1172
f 1173 1175 1174
f 1175 1173 1176
f 1177 1179 1178
f 1179 1177 1180
f 1181 1183 1182
f 1183 1181 1184
f 1185 1187 1186
f 1187 1185 1188
f 1189 1191 1190
f 1191 1189 1192
f 1193 1195 1194
f 1195 1193 1196
f 1197 1199 1198
f 1199 1197 1200
f 1201 1203 1202
f 1203 1201 1204
f 1205 1207 1206
f 1207 1205 1208
f 1209 1211 1210
f 1211 1209 1212
f 1213 1215 1214
f 1215 1213 1216
f 1215 1216 1217
f 1217 1216 1218
f 1217 1218 1219
f 1219 1218 1220
f 1219 1220 1221
f 1221 1220 1222
f 1221 1222 1223
f 1223 1222 1224
f 1223 1224 1225
f 1225 1224 1226
f 1225 1226 1227
f 1227 1226 1228
f 1229 1231 1230
f 1231 1229 1232
f 1233 1235 1234
f 1235 1233 1236
f 1237 1239 1238
f 1239 1237 1240
f 1241 1243 1242
f 1243 1241 1244
f 1245 1247 1246
f 1247 1245 1248
f 1249 1251 1250
f 1251 1249 1252
f 1253 1255 1254
f 1255 1253 1256
f 1257 1259 1258
f 1259 1257 1260
f 1261 1263 1262
f 1263 1261 1264
f 1265 1267 1266
f 1267 1265 1268
f 1269 1271 1270
f 1271 1269 1272
f 1273 1275 1274
f 1275 1273 1276
f 1277 1279 1278
f 1279 1277 1280
f 1279 1280 1281
f 1281 1280 1282
f 1281 1282 1283
f 1283 1282 1284
f 1283 1284 1285
f 1285 1284 1286
f 1285 1286 1287
f 1287 1286 1288
f 1287 1288 1289
f 1289 1288 1290
f 1289 1290 1291
f 1291 1290 1292
f 1293 1295 1294
f 1295 1293 1296
f 1297 1299 1298
f 1299 1297 1300
f 1301 1303 1302
f 1303 1301 1304
f 1305 1307 1306
f 1307 1305 1308
f 1309 1311 1310
f 1311 1309 1312
f 1313 1315 1314
f 1315 1313 1316
f 1317 1319 1318
f 1319 1317 1320
f 1321 1323 1322
f 1323 1321 1324
f 1325 1327 1326
f 1327 1325 1328
f 1329 1331 1330
f 1331 1329 1332
f 1333 1335 1334
f 1335 1333 1336
f 1337 1339 1338
f 1339 1337 1340
f 1341 1343 1342
f 1343 1341 1344
f 1345 1347 1346
f 1347 1345 1348
f 1349 1351 1350
f 1351 1349 1352
f 1353 1355 1354
f 1355 1353 1356
f 1357 1359 1358
f 1359 1357 1360
f 1361 1363 1362
f 1363 1361 1364
f 1365 1367 1366
f 1367 1365 1368
f 1369 1371 1370
f 1371 1369 1372
f 1373 1375 1374
f 1375 1373 1376
f 1377 1379 1378
f 1379 1377 1380
f 1381 1383 1382
f 1383 1381 1384
f 1385 1387 1386
f 1387 1385 1388
f 1389 1391 1390
f 1391 1389 1392
f 1393 1395 1394
f 1395 1393 1396
f 1397 1399 1398
f 1399 1397 1400
f 1401 1403 1402
f 1403 1401 1404
f 1405 1407 1406
f 1407 1405 1408
f 1409 1411 1410
f 1411 1409 1412
f 1411 1412 1413
f 1413 1412 1414
f 1413 1414 1415
f 1415 1414 1416
f 1415 1416 1417
f 1417 1416 1418
f 1417 1418 1419
f 1419 1418 1420
f 1419 1420 1421
f 1421 1420 1422
f 1421 1422 1423
f 1423 1422 1424
f 1425 1427 1426
f 1427 1425 1428
f 1429 1431 1430
f 1431 1429 1432
f 1433 1435 1434
f 1435 1433 1436
f 1437 1439 1438
f 1439 1437 1440
f 1441 1443 1442
f 1443 1441 1444
f 1445 1447 1446
f 1447 1445 1448
f 1449 1451 1450
f 1451 1449 1452
f 1453 1455 1454
f 1455 1453 1456
f 1457 1459 1458
f 1459 1457 1460
f 1461 1463 1462
f 1463 1461 1464
f 1465 1467 1466
f 1467 1465 1468
f 1469 1471 1470
f 1471 1469 1472
f 1473 1475 1474
f 1475 1473 1476
f 1477 1479 1478
f 1479 1477 1480
f 1481 1483 1482
f 1483 1481 1484
f 1485 1487 1486
f 1487 1485 1488
f 1489 1491 1490
f 1491 1489 1492
f 1493 1495 1494
f 1495 1493 1496
f 1497 1499 1498
f 1499 1497 1500
f 1501 1503 1502
f 1503 1501 1504
f 1505 1507 1506
f 1507 1505 1508
f 1509 1511 1510
f 1511 1509 1512
f 1513 1515 1514
f 1515 1513 1516
f 1517 1519 1518
f 1519 1517 1520
f 1521 1523 1522
f 1523 1521 1524
f 1525 1527 1526
f 1527 1525 1528
f 1529 1531 1530
f 1531 1529 1532
f 1533 1530 1531
f 1531 1532 1534
f 1530 1533 1535
f 1534 1532 1536
f 1535 1536 1532
f 1535 1533 1536
f 1537 1539 1538
f 1537 1538 1540
f 1541 1537 1540
f 1537 1542 1539
f 1539 1543 1538
f 1542 1543 1539
f 1544 1537 1541
f 1545 1542 1537
f 1544 1545 1537
f 1546 1544 1541
f 1546 1541 1547
f 1547 1541 1540
f 1546 1548 1544
f 1548 1545 1544
f 1546 1549 1548
f 1548 1550 1545
f 1550 1542 1545
f 1549 1550 1548
f 1550 1551 1542
f 1542 1552 1543
f 1551 1552 1542
f 1549 1553 1550
f 1553 1551 1550
f 1552 1554 1543
f 1551 1555 1552
f 1555 1554 1552
f 1543 1554 1556
f 1557 1554 1555
f 1546 1558 1554
f 1543 1556 1538
f 1559 1555 1551
f 1553 1559 1551
f 1559 1557 1555
f 1560 1553 1549
f 1561 1559 1553
f 1560 1561 1553
f 1549 1562 1560
f 1562 1549 1546
f 1563 1557 1559
f 1561 1563 1559
f 1564 1561 1560
f 1560 1562 1564
f 1564 1565 1561
f 1565 1563 1561
f 1564 1562 1566
f 1566 1565 1564
f 1563 1567 1557
f 1565 1568 1563
f 1568 1567 1563
f 1566 1569 1565
f 1569 1568 1565
f 1566 1562 1570
f 1569 1566 1570
f 1567 1571 1557
f 1557 1571 1554
f 1569 1572 1568
f 1570 1572 1569
f 1570 1562 1573
f 1571 1573 1562
f 1572 1570 1573
f 1568 1574 1567
f 1574 1571 1567
f 1572 1574 1568
f 1573 1571 1575
f 1575 1572 1573
f 1575 1571 1574
f 1572 1575 1574
f 1576 1554 1558
f 1577 1576 1558
f 1578 1577 1558
f 1546 1578 1558
f 1579 1577 1578
f 1546 1579 1578
f 1577 1580 1576
f 1579 1581 1577
f 1581 1580 1577
f 1546 1582 1579
f 1582 1581 1579
f 1580 1583 1576
f 1583 1554 1576
f 1546 1584 1582
f 1546 1547 1584
f 1581 1585 1580
f 1585 1583 1580
f 1582 1586 1581
f 1584 1586 1582
f 1586 1585 1581
f 1585 1587 1583
f 1587 1554 1583
f 1584 1588 1586
f 1547 1588 1584
f 1586 1589 1585
f 1589 1587 1585
f 1588 1589 1586
f 1590 1554 1587
f 1589 1590 1587
f 1588 1591 1589
f 1591 1590 1589
f 1592 1554 1590
f 1591 1592 1590
f 1556 1554 1592
f 1547 1593 1588
f 1593 1591 1588
f 1594 1592 1591
f 1594 1556 1592
f 1593 1594 1591
f 1595 1593 1547
f 1547 1540 1595
f 1596 1594 1593
f 1595 1596 1593
f 1597 1556 1594
f 1596 1597 1594
f 1598 1596 1595
f 1595 1540 1598
f 1598 1599 1596
f 1599 1597 1596
f 1597 1600 1556
f 1538 1556 1600
f 1599 1598 1601
f 1598 1540 1601
f 1599 1602 1597
f 1602 1600 1597
f 1601 1602 1599
f 1538 1600 1603
f 1538 1603 1540
f 1602 1603 1600
f 1602 1601 1604
f 1601 1540 1604
f 1540 1603 1604
f 1603 1602 1604
